<svg width="62" height="62" viewBox="0 0 62 62" fill="none" xmlns="http://www.w3.org/2000/svg">
<g clip-path="url(#clip0)">
<path d="M42.5595 4.20343H27.8475C27.8475 5.36411 26.9065 6.30513 25.7458 6.30513C24.5852 6.30513 23.6441 5.36411 23.6441 4.20343H8.93234C7.19125 4.20343 5.77979 5.6149 5.77979 7.35598V51.4915C5.77979 53.2326 7.19125 54.6441 8.93234 54.6441H42.5595C44.3006 54.6441 45.712 53.2326 45.712 51.4915V7.35598C45.712 5.61478 44.3006 4.20343 42.5595 4.20343Z" fill="#9B735A"/>
<path d="M44.6611 36.7797C44.3063 36.7797 43.9582 36.8062 43.6103 36.8327V7.35598C43.6103 6.7757 43.1397 6.30513 42.5595 6.30513H37.3052C36.7249 6.30513 36.2543 5.83456 36.2543 5.25428V4.20343H27.8475C27.8475 5.36411 26.9065 6.30513 25.7458 6.30513C24.5851 6.30513 23.6441 5.36411 23.6441 4.20343H15.2373V5.25428C15.2373 5.83456 14.7667 6.30513 14.1865 6.30513H8.9322C8.35192 6.30513 7.88135 6.7757 7.88135 7.35598V51.4915C7.88135 52.0718 8.35192 52.5424 8.9322 52.5424H31.1657C31.2787 53.2626 31.4462 53.965 31.6659 54.6441H42.5593C44.3004 54.6441 45.7119 53.2326 45.7119 51.4915V36.8327C45.364 36.8062 45.0158 36.7797 44.6611 36.7797Z" fill="#8C5F50"/>
<path d="M40.4575 50.4406H11.0338C10.4535 50.4406 9.98291 49.9701 9.98291 49.3898V9.45765C9.98291 8.87737 10.4535 8.4068 11.0338 8.4068H40.4575C41.0378 8.4068 41.5083 8.87737 41.5083 9.45765V49.3899C41.5083 49.9702 41.0378 50.4406 40.4575 50.4406Z" fill="#F1F4FB"/>
<path d="M41.5085 49.3898V37.1599C35.4863 38.5852 31 43.9829 31 50.4406H40.4577C41.0379 50.4406 41.5085 49.9702 41.5085 49.3898Z" fill="#E4EAF8"/>
<path d="M35.2034 22.0678H24.6949C24.114 22.0678 23.644 21.5978 23.644 21.0169C23.644 20.436 24.114 19.9661 24.6949 19.9661H35.2034C35.7843 19.9661 36.2543 20.436 36.2543 21.0169C36.2543 21.5978 35.7843 22.0678 35.2034 22.0678Z" fill="#7F8499"/>
<path d="M32.0509 17.8643H24.6949C24.114 17.8643 23.644 17.3944 23.644 16.8135C23.644 16.2326 24.114 15.7626 24.6949 15.7626H32.0509C32.6317 15.7626 33.1017 16.2326 33.1017 16.8135C33.1017 17.3944 32.6317 17.8643 32.0509 17.8643Z" fill="#5B5D6E"/>
<path d="M35.2034 32.5762H24.6949C24.114 32.5762 23.644 32.1063 23.644 31.5254C23.644 30.9445 24.114 30.4745 24.6949 30.4745H35.2034C35.7843 30.4745 36.2543 30.9445 36.2543 31.5254C36.2543 32.1063 35.7843 32.5762 35.2034 32.5762Z" fill="#7F8499"/>
<path d="M32.0509 28.3729H24.6949C24.114 28.3729 23.644 27.9029 23.644 27.322C23.644 26.7411 24.114 26.2712 24.6949 26.2712H32.0509C32.6317 26.2712 33.1017 26.7411 33.1017 27.322C33.1017 27.9029 32.6317 28.3729 32.0509 28.3729Z" fill="#5B5D6E"/>
<path d="M35.2034 43.0847H24.6949C24.114 43.0847 23.644 42.6148 23.644 42.0339C23.644 41.453 24.114 40.983 24.6949 40.983H35.2034C35.7843 40.983 36.2543 41.453 36.2543 42.0339C36.2543 42.6146 35.7843 43.0847 35.2034 43.0847Z" fill="#7F8499"/>
<path d="M32.0509 38.8814H24.6949C24.114 38.8814 23.644 38.4114 23.644 37.8305C23.644 37.2496 24.114 36.7797 24.6949 36.7797H32.0509C32.6317 36.7797 33.1017 37.2496 33.1017 37.8305C33.1017 38.4114 32.6317 38.8814 32.0509 38.8814Z" fill="#5B5D6E"/>
<path d="M32.0508 2.1017H29.3661C28.638 0.850563 27.2975 0 25.7457 0C24.1939 0 22.8534 0.850563 22.1252 2.1017H19.4406C18.2799 2.1017 17.3389 3.0426 17.3389 4.20341V8.40681C17.3389 8.98709 17.8094 9.45766 18.3897 9.45766H33.1016C33.6819 9.45766 34.1525 8.98709 34.1525 8.40681V4.20341C34.1525 3.0426 33.2115 2.1017 32.0508 2.1017ZM25.7457 5.77968C24.8751 5.77968 24.1694 5.07395 24.1694 4.20341C24.1694 3.33286 24.8751 2.62713 25.7457 2.62713C26.6162 2.62713 27.322 3.33286 27.322 4.20341C27.322 5.07395 26.6162 5.77968 25.7457 5.77968Z" fill="#FFF082"/>
<path d="M18.3897 9.45766H33.1016C33.6819 9.45766 34.1525 8.98709 34.1525 8.40681C34.1525 7.82653 33.6819 7.35596 33.1016 7.35596H18.3897C17.8094 7.35596 17.3389 7.82653 17.3389 8.40681C17.3389 8.98709 17.8094 9.45766 18.3897 9.45766Z" fill="#FFDC64"/>
<path d="M44.6609 62C51.045 62 56.2203 56.8247 56.2203 50.4407C56.2203 44.0566 51.045 38.8813 44.6609 38.8813C38.2769 38.8813 33.1016 44.0566 33.1016 50.4407C33.1016 56.8247 38.2769 62 44.6609 62Z" fill="#FFDC64"/>
<path d="M44.6613 59.8983C49.8846 59.8983 54.1189 55.664 54.1189 50.4406C54.1189 45.2173 49.8846 40.983 44.6613 40.983C39.438 40.983 35.2036 45.2173 35.2036 50.4406C35.2036 55.664 39.438 59.8983 44.6613 59.8983Z" fill="white"/>
<path d="M18.3899 22.0677C20.131 22.0677 21.5424 20.6563 21.5424 18.9152C21.5424 17.1741 20.131 15.7626 18.3899 15.7626C16.6488 15.7626 15.2373 17.1741 15.2373 18.9152C15.2373 20.6563 16.6488 22.0677 18.3899 22.0677Z" fill="#FFDC64"/>
<path d="M18.3899 43.0848C20.131 43.0848 21.5424 41.6733 21.5424 39.9322C21.5424 38.1911 20.131 36.7797 18.3899 36.7797C16.6488 36.7797 15.2373 38.1911 15.2373 39.9322C15.2373 41.6733 16.6488 43.0848 18.3899 43.0848Z" fill="#FFDC64"/>
<path d="M18.3899 32.5763C20.131 32.5763 21.5424 31.1648 21.5424 29.4237C21.5424 27.6826 20.131 26.2712 18.3899 26.2712C16.6488 26.2712 15.2373 27.6826 15.2373 29.4237C15.2373 31.1648 16.6488 32.5763 18.3899 32.5763Z" fill="#FFDC64"/>
<path d="M33.1641 43.0847H35.2034C35.7843 43.0847 36.2543 42.6148 36.2543 42.0339C36.2543 41.453 35.7843 40.983 35.2034 40.983H34.8203C34.2009 41.6256 33.6487 42.3308 33.1641 43.0847Z" fill="#5B5D6E"/>
<path d="M46.4262 54.515C43.495 53.9701 41.1292 51.6029 40.586 48.6715C40.4047 47.6934 40.4212 46.7448 40.5993 45.8542C40.7306 45.1978 39.9626 44.7478 39.4867 45.2184C37.9091 46.7787 37.0336 49.0458 37.3806 51.5088C37.8283 54.6862 40.4155 57.2734 43.5929 57.7211C46.0559 58.0681 48.3233 57.1926 49.8836 55.6149C50.3542 55.139 49.9041 54.3711 49.2479 54.5023C48.3558 54.6809 47.4056 54.697 46.4262 54.515Z" fill="#E4EAF8"/>
<path d="M49.04 55.8703C48.7712 55.8703 48.5022 55.7678 48.2971 55.5624L43.9182 51.1835C43.5077 50.773 43.5077 50.108 43.9182 49.6975C44.3287 49.287 44.9938 49.287 45.4043 49.6975L49.7832 54.0763C50.1937 54.4868 50.1937 55.1519 49.7832 55.5624C49.5778 55.7678 49.3089 55.8703 49.04 55.8703Z" fill="#5B5D6E"/>
<path d="M44.6612 51.4915C44.0809 51.4915 43.6104 51.0209 43.6104 50.4406V43.0847C43.6104 42.5044 44.0809 42.0338 44.6612 42.0338C45.2415 42.0338 45.7121 42.5044 45.7121 43.0847V50.4406C45.7121 51.021 45.2415 51.4915 44.6612 51.4915Z" fill="#464655"/>
</g>
<defs>
<clipPath id="clip0">
<rect width="62" height="62" fill="white"/>
</clipPath>
</defs>
</svg>
