<svg width="62" height="62" viewBox="0 0 62 62" fill="none" xmlns="http://www.w3.org/2000/svg">
<path d="M18.7122 38.1522L10.2622 56.978C9.97069 57.6272 10.4993 58.3461 11.2057 58.2615L15.9402 57.6955L18.6687 61.6082C19.0756 62.1916 19.9632 62.1083 20.2545 61.4593L28.8094 42.3994L18.7122 38.1522Z" fill="#E22121"/>
<path d="M43.2877 38.1522L51.7378 56.978C52.0292 57.6272 51.5007 58.3461 50.7942 58.2615L46.0597 57.6955L43.3311 61.6082C42.9242 62.1916 42.0366 62.1083 41.7453 61.4593L33.1904 42.3994L43.2877 38.1522Z" fill="#C10A0A"/>
<path d="M51.7378 56.978L45.7917 43.7311L45.5935 43.2894C45.5935 43.2894 44.4154 43.7311 43.5235 45.3739C43.0957 46.1618 42.4338 46.7415 41.994 47.0675C41.7356 47.2592 41.6452 47.6037 41.7767 47.8973L46.1752 57.7096L50.794 58.2618C51.5007 58.3462 52.0291 57.6274 51.7378 56.978Z" fill="#E22121"/>
<path d="M18.7122 38.1522L10.2622 56.978C9.97069 57.6272 10.4993 58.346 11.2057 58.2615L15.8245 57.7093L20.0843 48.2066C20.3102 47.7027 20.8835 47.4937 21.4062 47.6722C21.8776 47.8331 22.3761 47.9198 22.8852 47.9198C23.1268 47.9198 23.3707 47.9008 23.6096 47.8632L26.1687 47.4605C26.178 47.4603 26.1868 47.4599 26.1953 47.4599C26.2734 47.4599 26.3183 47.4738 26.3581 47.4981L26.4859 47.5759L28.8094 42.3993L18.7122 38.1522Z" fill="#C10A0A"/>
<path d="M54.3088 24.9562L52.958 27.1717C52.6534 27.6714 52.5359 28.2633 52.6269 28.8417L53.0295 31.4007C53.1736 32.3169 52.7924 33.2369 52.0422 33.7824L49.9483 35.3055C49.4742 35.6504 49.1381 36.1525 49.0003 36.7222L48.3906 39.2417C48.1728 40.1415 47.4703 40.844 46.5705 41.0617L44.0511 41.6713C43.4814 41.8091 42.9791 42.1453 42.6343 42.6192L41.1117 44.7126C40.566 45.4627 39.6461 45.8439 38.7298 45.6998L36.1717 45.2972C35.5933 45.2061 35.0014 45.3235 34.5014 45.6284L32.2864 46.9791C31.4966 47.4607 30.5039 47.4607 29.7142 46.9791L27.4988 45.6283C26.9991 45.3236 26.4072 45.2062 25.8288 45.2971L23.2697 45.6997C22.3535 45.8438 21.4336 45.4626 20.8881 44.7124L19.3649 42.6185C19.0201 42.1444 18.518 41.8084 17.9483 41.6706L15.4288 41.0609C14.5289 40.843 13.8265 40.1406 13.6088 39.2407L12.9992 36.7214C12.8614 36.1516 12.5252 35.6493 12.0512 35.3046L9.95778 33.7817C9.2076 33.236 8.8264 32.3161 8.9705 31.3998L9.37314 28.8417C9.4642 28.2633 9.34686 27.6714 9.04195 27.1714L7.69103 24.9562C7.20944 24.1665 7.20944 23.1737 7.69103 22.3841L9.04183 20.1687C9.3465 19.6689 9.46396 19.077 9.37302 18.4987L8.97038 15.9396C8.82628 15.0234 9.20748 14.1035 9.95766 13.5579L12.0516 12.0348C12.5257 11.6899 12.8617 11.1879 12.9995 10.6181L13.6092 8.09866C13.8271 7.19881 14.5296 6.49635 15.4294 6.27862L17.9488 5.66903C18.5185 5.53123 19.0208 5.19507 19.3656 4.72111L20.8883 2.62777C21.434 1.87759 22.3539 1.49639 23.2702 1.64049L25.8283 2.04312C26.4067 2.13419 26.9986 2.01685 27.4986 1.71193L29.7136 0.361253C30.5034 -0.120336 31.4961 -0.120336 32.2858 0.361253L34.5013 1.71205C35.0011 2.01673 35.593 2.13419 36.1713 2.04325L38.7304 1.64061C39.6466 1.49651 40.5665 1.87771 41.1121 2.62789L42.6352 4.72184C42.98 5.19592 43.4821 5.53196 44.0518 5.66976L46.5713 6.27947C47.4712 6.49732 48.1736 7.19978 48.3914 8.09963L49.0009 10.619C49.1388 11.1887 49.4749 11.691 49.9489 12.0358L52.0422 13.5584C52.7924 14.1041 53.1736 15.024 53.0295 15.9403L52.6269 18.4984C52.5358 19.0768 52.6531 19.6687 52.958 20.1687L54.3087 22.3837C54.7904 23.1739 54.7904 24.1665 54.3088 24.9562Z" fill="#FFC850"/>
<path d="M16.7634 18.742C16.7634 12.1761 19.2259 6.18775 23.2731 1.64104L23.2706 1.64068C22.3543 1.49634 21.4343 1.87766 20.8888 2.62784L19.3662 4.72118C19.0213 5.19527 18.5191 5.5313 17.9494 5.66911L15.43 6.27869C14.5302 6.4963 13.8277 7.19888 13.6098 8.09873L13.0001 10.6182C12.8623 11.188 12.5262 11.6901 12.0522 12.0349L9.95815 13.558C9.20809 14.1035 8.82677 15.0235 8.97087 15.9397L9.3735 18.4986C9.46457 19.077 9.34711 19.6688 9.04231 20.1686L7.69127 22.384C7.20968 23.1738 7.20968 24.1665 7.69127 24.9562L9.04195 27.1712C9.34686 27.6711 9.46408 28.2631 9.37314 28.8415L8.97051 31.3996C8.82616 32.3159 9.20749 33.2359 9.95766 33.7814L12.051 35.304C12.5251 35.6489 12.8611 36.1511 12.9989 36.7208L13.6085 39.2402C13.8261 40.14 14.5287 40.8425 15.4286 41.0603L17.948 41.67C18.5178 41.8078 19.02 42.144 19.3647 42.618L20.8876 44.7119C21.4332 45.462 22.3531 45.8433 23.2693 45.6992L25.8282 45.2966C26.4066 45.2055 26.9983 45.3228 27.4983 45.6277L29.7139 46.9785C30.5038 47.4601 31.4964 47.4601 32.286 46.9785L34.5011 45.6279C35.0009 45.323 35.593 45.2057 36.1713 45.2967L38.7295 45.6993C39.6459 45.8435 40.5658 45.4623 41.1113 44.7122L41.3041 44.4471C27.6457 43.823 16.7634 32.5547 16.7634 18.742Z" fill="#E1A546"/>
<path d="M31.0008 41.1925C40.6781 41.1925 48.523 33.3475 48.523 23.6702C48.523 13.9929 40.6781 6.14795 31.0008 6.14795C21.3235 6.14795 13.4785 13.9929 13.4785 23.6702C13.4785 33.3475 21.3235 41.1925 31.0008 41.1925Z" fill="#FFDC64"/>
<path d="M35.0898 32.233C28.641 31.2041 23.4661 26.0291 22.4371 19.5803C22.0747 17.308 22.2222 15.1171 22.7743 13.0924C23.0467 12.0935 21.8596 11.3297 21.071 12.0004C17.3942 15.1268 15.2101 19.9526 15.7493 25.2696C16.4724 32.4032 22.2668 38.1975 29.4003 38.9206C34.7172 39.4597 39.5432 37.2758 42.6695 33.5989C43.3401 32.8101 42.5763 31.6232 41.5774 31.8956C39.553 32.4481 37.3622 32.5955 35.0898 32.233Z" fill="#FFC850"/>
<path d="M30.9999 31.0377L24.6256 34.6059C23.9623 34.9771 23.1689 34.4005 23.317 33.6551L24.7407 26.49L19.3774 21.5303C18.8194 21.0142 19.1225 20.0814 19.8771 19.9919L27.1315 19.1318L30.1912 12.4984C30.5094 11.8082 31.4904 11.8082 31.8087 12.4984L34.8684 19.1318L42.1228 19.9919C42.8774 20.0814 43.1805 21.0142 42.6225 21.5303L37.2591 26.49L38.6828 33.6551C38.8309 34.4005 38.0374 34.9771 37.3743 34.6059L30.9999 31.0377Z" fill="white"/>
<path d="M30.9842 11.985C30.6649 11.9907 30.3476 12.1591 30.1912 12.4982L27.1315 19.1318L19.8771 19.9919C19.1225 20.0814 18.8194 21.0142 19.3774 21.5301L24.7407 26.49L23.317 33.6551C23.1689 34.4005 23.9625 34.9771 24.6256 34.6058L25.6345 34.0412L27.3447 26.2219C27.4227 25.8652 27.3308 25.4924 27.0959 25.2128L25.2843 23.0577C24.9783 22.6939 25.1578 22.1354 25.6184 22.0178L28.5103 21.2794C28.9521 21.1665 29.289 20.8087 29.3751 20.3609L30.9842 11.985Z" fill="#FFFAB4"/>
<path d="M38.3985 34.4868L34.8801 30.5774C34.3013 29.9343 33.3578 29.7701 32.5958 30.1797L31 31.0375L37.3744 34.6057C37.7368 34.8086 38.133 34.7229 38.3985 34.4868Z" fill="#FFFAB4"/>
</svg>
