<svg width="62" height="62" viewBox="0 0 62 62" fill="none" xmlns="http://www.w3.org/2000/svg">
<g clip-path="url(#clip0)">
<path d="M44.8488 4.63006C44.6577 3.21497 43.928 1.95924 42.7932 1.09367C40.4507 -0.693537 37.0892 -0.241498 35.302 2.10213C33.9406 3.88703 32.129 9.0078 30.9999 12.4655C29.871 9.0078 28.0593 3.88703 26.6979 2.10213C24.9107 -0.241014 21.5503 -0.695716 19.2066 1.09367C18.0718 1.95912 17.3421 3.21497 17.151 4.63006C16.96 6.04514 17.3317 7.44982 18.1981 8.58446C20.2203 11.2366 29.4371 16.3889 30.4821 16.9677C30.6439 17.0575 30.8225 17.1019 30.9999 17.1019C31.177 17.1019 31.3468 17.0436 31.505 16.9574L31.5177 16.9677C32.5626 16.3889 41.7796 11.2365 43.8017 8.58446C44.6681 7.44982 45.0398 6.04514 44.8488 4.63006ZM19.8977 7.28792C19.3788 6.60665 19.1554 5.76433 19.2703 4.91559C19.3841 4.06637 19.8226 3.31269 20.5032 2.7932C21.0827 2.35158 21.7664 2.13761 22.4439 2.13761C23.4115 2.13761 24.3678 2.57245 24.9983 3.39879C26.1634 4.92661 27.9975 10.1353 29.1678 13.7535C25.8324 11.7973 21.0564 8.80799 19.8977 7.28792ZM42.1022 7.28792C40.9434 8.80787 36.1663 11.7972 32.832 13.7535C34.0012 10.1353 35.8355 4.9271 37.0015 3.39879C37.632 2.57197 38.5883 2.13761 39.556 2.13761C40.2335 2.13761 40.9173 2.3517 41.4966 2.7932C42.1772 3.31257 42.6157 4.06625 42.7295 4.91559C42.8445 5.76421 42.621 6.60677 42.1022 7.28792Z" fill="#FFDC64"/>
<path d="M52.3797 61.9994H9.62019C8.43941 61.9994 7.48218 61.0423 7.48218 59.8614V19.2399C7.48218 18.0592 8.43929 17.1019 9.62019 17.1019H52.3797C53.5604 17.1019 54.5177 18.059 54.5177 19.2399V59.8614C54.5177 61.0423 53.5604 61.9994 52.3797 61.9994Z" fill="#E22121"/>
<path d="M12.8271 51.3095V17.102H9.62019C8.43941 17.102 7.48218 18.0591 7.48218 19.24V59.8615C7.48218 61.0422 8.43929 61.9995 9.62019 61.9995H52.3797C53.5603 61.9995 54.5177 61.0422 54.5177 59.8615H21.379C16.656 59.8615 12.8271 56.0326 12.8271 51.3095Z" fill="#D21111"/>
<path d="M31 18.1709C30.8654 18.1709 30.7306 18.1454 30.6033 18.0948L14.5685 11.6809C14.0204 11.4611 13.7532 10.8394 13.9724 10.291C14.1917 9.7429 14.8169 9.47722 15.3618 9.69543L30.9999 15.9507L46.6381 9.69543C47.1819 9.47771 47.8083 9.7429 48.0275 10.291C48.2468 10.8395 47.9795 11.4612 47.4313 11.6809L31.3965 18.0948C31.2693 18.1455 31.1347 18.1709 31 18.1709Z" fill="#FFC850"/>
<path d="M7.48218 53.4476L16.0341 61.9994H25.655L7.48218 43.8267V53.4476Z" fill="#F23737"/>
<path d="M7.48218 34.2058L35.2758 61.9994H44.8968L7.48218 24.585V34.2058Z" fill="#F23737"/>
<path d="M54.5176 52.3786L19.2409 17.1021H9.62012L53.8914 61.3734C54.2784 60.9864 54.5177 60.4519 54.5177 59.8617V52.3786H54.5176Z" fill="#F23737"/>
<path d="M54.5176 33.1368L38.4827 17.1021H28.8618L54.5176 42.7577V33.1368Z" fill="#F23737"/>
<path d="M54.5177 19.2399C54.5177 18.0592 53.5604 17.1019 52.3797 17.1019H48.1038L54.5177 23.5158V19.2399Z" fill="#F23737"/>
<path d="M33.1379 59.8616L35.2758 61.9995H44.8968L42.7587 59.8616H33.1379Z" fill="#DF0C0C"/>
<path d="M12.8271 29.9299L7.48218 24.585V34.2058L12.8271 39.5508V29.9299Z" fill="#DF0C0C"/>
<path d="M21.379 59.8615C16.6559 59.8615 12.8271 56.0327 12.8271 51.3096V49.1716L7.48218 43.8267V53.4476L16.0341 61.9994H25.655L23.517 59.8614H21.379V59.8615Z" fill="#DF0C0C"/>
<path d="M34.2064 17.1025H27.7925V62H34.2064V17.1025Z" fill="#FFDC64"/>
<path d="M34.2064 59.862H27.7925V62H34.2064V59.862Z" fill="#FFC850"/>
<path d="M12.827 17.102H9.62012L12.827 20.3089V17.102Z" fill="#DF0C0C"/>
<path d="M53.8915 61.3732C54.1817 61.0829 54.3888 60.7098 54.4742 60.2923C54.5026 60.153 54.5177 60.0091 54.5177 59.8613H52.3796L53.8915 61.3732Z" fill="#DF0C0C"/>
</g>
<defs>
<clipPath id="clip0">
<rect width="62" height="62" fill="white"/>
</clipPath>
</defs>
</svg>
