<svg width="62" height="62" viewBox="0 0 62 62" fill="none" xmlns="http://www.w3.org/2000/svg">
<g clip-path="url(#clip0)">
<path d="M31.4532 1.519L35.2538 0.0828377C35.6778 -0.0773687 36.1549 -0.00180648 36.5085 0.281552L39.6791 2.82197C39.9227 3.01717 40.2292 3.11683 40.541 3.10206L44.5995 2.91061C45.0522 2.8893 45.4825 3.1086 45.7313 3.48738L47.9619 6.8832C48.1332 7.14415 48.3939 7.33354 48.6951 7.41589L52.614 8.4878C53.0512 8.60744 53.3926 8.94881 53.5122 9.38595L54.5841 13.3049C54.6664 13.6061 54.8558 13.8668 55.1168 14.0381L58.5126 16.2687C58.8914 16.5175 59.1107 16.9477 59.0894 17.4005L58.8979 21.459C58.8833 21.7709 58.9828 22.0773 59.178 22.3209L61.7184 25.4917C62.0018 25.8454 62.0773 26.3224 61.9171 26.7464L60.481 30.547C60.3706 30.839 60.3706 31.1612 60.481 31.4533L61.9171 35.2539C62.0773 35.6779 62.0018 36.155 61.7184 36.5086L59.178 39.6794C58.9828 39.923 58.8831 40.2295 58.8979 40.5413L59.0894 44.5998C59.1107 45.0525 58.8914 45.4828 58.5126 45.7316L55.1168 47.9622C54.8558 48.1335 54.6664 48.3942 54.5841 48.6954L53.5122 52.6143C53.3925 53.0515 53.0512 53.393 52.614 53.5125L48.6951 54.5844C48.3939 54.6667 48.1332 54.8561 47.9619 55.1171L45.7313 58.5129C45.4825 58.8917 45.0522 59.111 44.5995 59.0897L40.541 58.8982C40.2293 58.8836 39.9227 58.9831 39.6791 59.1783L36.5082 61.7187C36.1545 62.0021 35.6775 62.0777 35.2536 61.9174L31.453 60.4813C31.161 60.371 30.8388 60.371 30.5467 60.4813L26.7461 61.9174C26.3221 62.0777 25.845 62.0021 25.4914 61.7187L22.3206 59.1783C22.077 58.9831 21.7705 58.8834 21.4586 58.8982L17.4002 59.0897C16.9474 59.111 16.5172 58.8917 16.2683 58.5129L14.0378 55.1171C13.8665 54.8561 13.6058 54.6667 13.3046 54.5844L9.38565 53.5125C8.9485 53.3928 8.60702 53.0515 8.4875 52.6143L7.41558 48.6954C7.33324 48.3942 7.14385 48.1335 6.88289 47.9622L3.48707 45.7315C3.10829 45.4827 2.889 45.0524 2.91031 44.5996L3.10176 40.5412C3.11653 40.2294 3.01687 39.9229 2.82167 39.6793L0.281736 36.5082C-0.00162242 36.1545 -0.0771846 35.6775 0.0830218 35.2535L1.51919 31.4529C1.6295 31.161 1.6295 30.8387 1.51919 30.5466L0.0830218 26.746C-0.0771846 26.3221 -0.00162242 25.845 0.281736 25.4914L2.82215 22.3208C3.01735 22.0771 3.11701 21.7707 3.10224 21.4588L2.91079 17.4004C2.88948 16.9476 3.10878 16.5174 3.48756 16.2685L6.88338 14.038C7.14433 13.8666 7.33372 13.6059 7.41607 13.3048L8.48799 9.38583C8.60763 8.94869 8.94899 8.6072 9.38614 8.48768L13.3051 7.41577C13.6062 7.33342 13.8669 7.14403 14.0383 6.88308L16.2688 3.48726C16.5177 3.10848 16.9479 2.88918 17.4007 2.91049L21.4591 3.10194C21.7709 3.11671 22.0774 3.01705 22.3211 2.82185L25.4919 0.281431C25.8456 -0.0019276 26.3226 -0.0774898 26.7466 0.0827166L30.5472 1.51888C30.8389 1.62932 31.1613 1.62932 31.4532 1.519Z" fill="#FFC850"/>
<path d="M40.6753 53.5752C22.8638 53.5752 8.42465 39.136 8.42465 21.3245C8.42465 16.5543 9.4686 12.0305 11.3274 7.95654L9.38614 8.48766C8.94899 8.6073 8.6075 8.94866 8.48799 9.38581L7.41595 13.3048C7.3336 13.6059 7.14421 13.8666 6.88326 14.0381L3.48732 16.2686C3.10854 16.5175 2.88924 16.9477 2.91055 17.4004L3.102 21.4588C3.11665 21.7706 3.01711 22.0771 2.82191 22.3208L0.281736 25.4916C-0.00162242 25.8453 -0.0771846 26.3223 0.0830218 26.7461L1.51919 30.5467C1.6295 30.8387 1.6295 31.1609 1.51919 31.453L0.0830218 35.2536C-0.0771846 35.6776 -0.00162242 36.1547 0.281736 36.5083L2.82215 39.6791C3.01735 39.9228 3.11701 40.2292 3.10224 40.5411L2.91079 44.5995C2.88948 45.0523 3.10878 45.4825 3.48756 45.7314L6.88338 47.9619C7.14421 48.1333 7.33372 48.394 7.41607 48.6951L8.48811 52.6141C8.60775 53.0512 8.94911 53.3927 9.38626 53.5123L13.3052 54.5844C13.6064 54.6667 13.8671 54.8561 14.0384 55.1171L16.269 58.5129C16.5178 58.8917 16.948 59.1108 17.4008 59.0897L21.4591 58.8982C21.7711 58.8836 22.0776 58.9831 22.3212 59.1783L25.492 61.7187C25.8457 62.0019 26.3227 62.0776 26.7466 61.9174L30.5472 60.4811C30.8391 60.3708 31.1614 60.3708 31.4534 60.4811L35.2541 61.9174C35.678 62.0776 36.1551 62.0021 36.5086 61.7187L39.6794 59.1783C39.9231 58.9832 40.2296 58.8836 40.5415 58.8982L44.5998 59.0897C45.0526 59.111 45.4828 58.8917 45.7317 58.5129L47.9622 55.1171C48.1336 54.8562 48.3943 54.6667 48.6954 54.5844L52.6144 53.5123C53.0515 53.3927 53.393 53.0513 53.5125 52.6141L54.0436 50.6728C49.9695 52.5314 45.4455 53.5752 40.6753 53.5752Z" fill="#E1A546"/>
<path d="M30.9996 55.7249C44.6551 55.7249 55.725 44.655 55.725 30.9995C55.725 17.344 44.6551 6.27405 30.9996 6.27405C17.3441 6.27405 6.27417 17.344 6.27417 30.9995C6.27417 44.655 17.3441 55.7249 30.9996 55.7249Z" fill="#FFDC64"/>
<path d="M42.8877 48.6418C42.6749 48.3581 42.3434 48.1926 41.9889 48.181C28.7212 47.7396 18.0997 36.85 18.0997 23.4749C18.0997 19.8982 18.8678 16.5054 20.2394 13.4398C20.6735 12.4693 19.5891 11.5042 18.6981 12.0843C11.8835 16.5208 7.60949 24.5278 8.55511 33.4606C9.62194 43.5379 17.5207 51.7982 27.5403 53.3131C33.0708 54.1493 38.2547 52.937 42.536 50.3663C43.1401 50.0036 43.3103 49.2055 42.8877 48.6418Z" fill="#FFC850"/>
<path d="M23.4749 43.9001H17.0248C16.4311 43.9001 15.9497 43.4187 15.9497 42.825V25.6247C15.9497 25.031 16.4311 24.5496 17.0248 24.5496H23.4749C24.0686 24.5496 24.55 25.031 24.55 25.6247V42.825C24.55 43.4189 24.0686 43.9001 23.4749 43.9001Z" fill="white"/>
<path d="M47.1168 26.96C46.9768 25.5612 45.6956 24.5496 44.2899 24.5496H35.1388C37.6413 22.5236 39.3405 19.8058 39.5865 17.5707C39.7688 15.9133 38.6228 14.3389 36.9555 14.3234C35.4603 14.3096 34.2433 15.5053 34.2433 16.9972C34.2433 17.9651 32.1426 20.8374 28.2056 22.1154C28.1998 22.1173 28.1942 22.1192 28.1884 22.1211C27.2675 22.4258 26.7 23.3572 26.7 24.3272V41.7498C26.7 42.3436 27.1813 42.8249 27.775 42.8249H41.6408C42.7118 42.8249 43.7045 42.0929 43.8764 41.0357C44.0955 39.6887 43.0616 38.5248 41.7559 38.5248H42.716C43.787 38.5248 44.7797 37.7927 44.9516 36.7356C45.1707 35.3886 44.1368 34.2246 42.831 34.2246H43.7912C44.8621 34.2246 45.8549 33.4926 46.0268 32.4355C46.2459 31.0884 45.212 29.9245 43.9062 29.9245H44.4438C46.0189 29.9248 47.2778 28.5688 47.1168 26.96Z" fill="white"/>
<path d="M40.6752 36.3748C40.0814 36.3748 39.6001 36.8562 39.6001 37.4499C39.6001 38.0436 40.0814 38.525 40.6752 38.525H41.7556H42.7157C43.7866 38.525 44.7794 37.7929 44.9513 36.7358C44.9712 36.6129 44.97 36.494 44.9698 36.3748H40.6752Z" fill="#FFFAB4"/>
<path d="M40.6752 32.0748C40.0814 32.0748 39.6001 32.5561 39.6001 33.1498C39.6001 33.7436 40.0814 34.2249 40.6752 34.2249H42.8306H43.7908C44.8617 34.2249 45.8544 33.4929 46.0264 32.4357C46.0462 32.3128 46.045 32.1939 46.0449 32.0748H40.6752Z" fill="#FFFAB4"/>
<path d="M40.6752 27.7748C40.0814 27.7748 39.6001 28.2561 39.6001 28.8498C39.6001 29.4436 40.0814 29.9249 40.6752 29.9249H43.9056H44.4431C45.7416 29.9249 46.8111 28.999 47.0621 27.7749H40.6752V27.7748Z" fill="#FFFAB4"/>
<path d="M31.0002 40.6751C29.8128 40.6751 28.8502 39.7125 28.8502 38.5251V25.2784C28.8502 24.8472 29.1083 24.4617 29.5036 24.2897C31.2634 23.524 36.8006 20.5766 37.3836 14.789C37.2073 14.6044 37.1151 14.508 36.9388 14.3235C35.4514 14.3188 34.2436 15.5109 34.2436 16.9974C34.2436 17.9653 32.1429 20.8376 28.2059 22.1156C27.3076 22.4105 26.7002 23.249 26.7002 24.1945V41.7502C26.7002 42.3439 27.1815 42.8252 27.7753 42.8252H41.641C42.8278 42.8252 43.9182 41.9266 43.9026 40.6828C43.8998 40.6799 43.8979 40.6781 43.8951 40.6752H31.0002V40.6751Z" fill="#FFFAB4"/>
<path d="M20.2499 41.75C19.0624 41.75 18.0998 40.7874 18.0998 39.6V24.5497H17.0248C16.4311 24.5497 15.9497 25.031 15.9497 25.6247V42.8251C15.9497 43.4188 16.4311 43.9001 17.0248 43.9001H23.4749C24.0686 43.9001 24.55 43.4188 24.55 42.8251V41.75H20.2499Z" fill="#FFFAB4"/>
<path d="M20.2494 41.2121C21.14 41.2121 21.8619 40.4902 21.8619 39.5997C21.8619 38.7091 21.14 37.9872 20.2494 37.9872C19.3589 37.9872 18.637 38.7091 18.637 39.5997C18.637 40.4902 19.3589 41.2121 20.2494 41.2121Z" fill="#FFDC64"/>
</g>
<defs>
<clipPath id="clip0">
<rect width="62" height="62" fill="white"/>
</clipPath>
</defs>
</svg>
