<svg width="20" height="20" viewBox="0 0 20 20" fill="none" xmlns="http://www.w3.org/2000/svg">
<path d="M6.74192 15.1383C5.70406 15.1383 4.86275 16.0028 4.86275 17.0691C4.86275 18.1356 5.7041 19 6.74192 19C7.77977 19 8.62108 18.1355 8.62108 17.0691C8.62112 16.0028 7.77977 15.1383 6.74192 15.1383ZM6.74192 18.1419C6.16534 18.1419 5.69795 17.6616 5.69795 17.0692C5.69795 16.4767 6.16534 15.9965 6.74192 15.9965C7.31849 15.9965 7.78589 16.4767 7.78589 17.0692C7.78592 17.6616 7.31849 18.1419 6.74192 18.1419Z" fill="#E22121"/>
<path d="M14.6762 15.1383C13.6384 15.1383 12.7971 16.0028 12.7971 17.0691C12.7971 18.1356 13.6384 19 14.6762 19C15.7141 19 16.5554 18.1355 16.5554 17.0691C16.5554 16.0028 15.7141 15.1383 14.6762 15.1383ZM14.6762 18.1419C14.0997 18.1419 13.6323 17.6616 13.6323 17.0692C13.6323 16.4767 14.0997 15.9965 14.6762 15.9965C15.2528 15.9965 15.7202 16.4767 15.7202 17.0692C15.7203 17.6616 15.2528 18.1419 14.6762 18.1419Z" fill="#E22121"/>
<path d="M18.9148 3.87489C18.8279 3.77728 18.7089 3.71617 18.5808 3.70324L4.98805 3.51015L4.61221 2.33016C4.34745 1.54135 3.62855 1.00883 2.81654 1H1.4176C1.18696 1 1 1.1921 1 1.42908C1 1.66607 1.18696 1.85817 1.4176 1.85817H2.81654C3.27058 1.86847 3.67039 2.16804 3.81879 2.60907L6.47052 10.826L6.26174 11.3194C6.02886 11.9365 6.0988 12.631 6.44965 13.1859C6.79715 13.731 7.38176 14.0674 8.01565 14.087H16.1379C16.3685 14.087 16.5555 13.8949 16.5555 13.6579C16.5555 13.421 16.3685 13.2289 16.1379 13.2289H8.01561C7.65764 13.2197 7.32813 13.0262 7.13865 12.714C6.9513 12.4056 6.91281 12.0256 7.03427 11.6841L7.20132 11.298L15.9917 10.354C16.9573 10.2447 17.7515 9.52311 17.9753 8.55181L18.9775 4.23954C19.0227 4.11536 18.9987 3.9757 18.9148 3.87489ZM17.161 8.35877C17.0254 8.98402 16.5088 9.44521 15.8873 9.49585L7.20132 10.4184L5.25949 4.36832L18.0588 4.56141L17.161 8.35877Z" fill="#E22121"/>
<path d="M6.74192 15.1383C5.70406 15.1383 4.86275 16.0028 4.86275 17.0691C4.86275 18.1356 5.7041 19 6.74192 19C7.77977 19 8.62108 18.1355 8.62108 17.0691C8.62112 16.0028 7.77977 15.1383 6.74192 15.1383ZM6.74192 18.1419C6.16534 18.1419 5.69795 17.6616 5.69795 17.0692C5.69795 16.4767 6.16534 15.9965 6.74192 15.9965C7.31849 15.9965 7.78589 16.4767 7.78589 17.0692C7.78592 17.6616 7.31849 18.1419 6.74192 18.1419Z" stroke="#E22121" stroke-width="0.5"/>
<path d="M14.6762 15.1383C13.6384 15.1383 12.7971 16.0028 12.7971 17.0691C12.7971 18.1356 13.6384 19 14.6762 19C15.7141 19 16.5554 18.1355 16.5554 17.0691C16.5554 16.0028 15.7141 15.1383 14.6762 15.1383ZM14.6762 18.1419C14.0997 18.1419 13.6323 17.6616 13.6323 17.0692C13.6323 16.4767 14.0997 15.9965 14.6762 15.9965C15.2528 15.9965 15.7202 16.4767 15.7202 17.0692C15.7203 17.6616 15.2528 18.1419 14.6762 18.1419Z" stroke="#E22121" stroke-width="0.5"/>
<path d="M18.9148 3.87489C18.8279 3.77728 18.7089 3.71617 18.5808 3.70324L4.98805 3.51015L4.61221 2.33016C4.34745 1.54135 3.62855 1.00883 2.81654 1H1.4176C1.18696 1 1 1.1921 1 1.42908C1 1.66607 1.18696 1.85817 1.4176 1.85817H2.81654C3.27058 1.86847 3.67039 2.16804 3.81879 2.60907L6.47052 10.826L6.26174 11.3194C6.02886 11.9365 6.0988 12.631 6.44965 13.1859C6.79715 13.731 7.38176 14.0674 8.01565 14.087H16.1379C16.3685 14.087 16.5555 13.8949 16.5555 13.6579C16.5555 13.421 16.3685 13.2289 16.1379 13.2289H8.01561C7.65764 13.2197 7.32813 13.0262 7.13865 12.714C6.9513 12.4056 6.91281 12.0256 7.03427 11.6841L7.20132 11.298L15.9917 10.354C16.9573 10.2447 17.7515 9.52311 17.9753 8.55181L18.9775 4.23954C19.0227 4.11536 18.9987 3.9757 18.9148 3.87489ZM17.161 8.35877C17.0254 8.98402 16.5088 9.44521 15.8873 9.49585L7.20132 10.4184L5.25949 4.36832L18.0588 4.56141L17.161 8.35877Z" stroke="#E22121" stroke-width="0.5"/>
</svg>
