<svg width="12" height="16" viewBox="0 0 12 16" fill="none" xmlns="http://www.w3.org/2000/svg">
<path d="M6 0C2.69158 0 0 2.59944 0 5.79457C0 9.75982 5.36941 15.581 5.59802 15.8269C5.81275 16.0579 6.18764 16.0575 6.40198 15.8269C6.63059 15.581 12 9.75982 12 5.79457C11.9999 2.59944 9.30839 0 6 0ZM6 14.679C4.19292 12.606 1.08049 8.51601 1.08049 5.79463C1.08049 3.17482 3.28735 1.0435 6 1.0435C8.71265 1.0435 10.9195 3.17482 10.9195 5.7946C10.9195 8.5161 7.80754 12.6053 6 14.679Z" fill="#E22121"/>
<path d="M6 2.87919C4.33545 2.87919 2.98128 4.18704 2.98128 5.7946C2.98128 7.40217 4.33549 8.71001 6 8.71001C7.66452 8.71001 9.01869 7.40217 9.01869 5.7946C9.01869 4.18704 7.66452 2.87919 6 2.87919ZM6 7.66651C4.93122 7.66651 4.06177 6.82679 4.06177 5.7946C4.06177 4.76241 4.93126 3.92269 6 3.92269C7.06874 3.92269 7.93823 4.76241 7.93823 5.7946C7.93823 6.82679 7.06874 7.66651 6 7.66651Z" fill="#E22121"/>
</svg>
