<svg width="27" height="30" viewBox="0 0 27 30" fill="none" xmlns="http://www.w3.org/2000/svg">
<path d="M1 1V9.94523C1 12.1409 2.72198 13.9209 4.84615 13.9209C6.97033 13.9209 8.69231 12.1409 8.69231 9.94523V3.98174C8.69231 2.8839 7.83132 1.99391 6.76923 1.99391C5.70714 1.99391 4.84615 2.8839 4.84615 3.98174V10.9391M11.5769 1.99391H24.0769C25.139 1.99391 26 2.8839 26 3.98174V27.0122C26 28.11 25.139 29 24.0769 29H4.84615C3.78407 29 2.92308 28.11 2.92308 27.0122V16.9026M21.1923 9.94523H13.5M21.1923 15.9087H13.5M21.1923 21.8722H7.73077" stroke="#E22121" stroke-width="2"/>
</svg>
