<svg width="42" height="42" viewBox="0 0 42 42" fill="none" xmlns="http://www.w3.org/2000/svg">
<g clip-path="url(#clip0)">
<path d="M13.3979 32.6683C10.9762 32.6683 9.01318 34.6315 9.01318 37.053C9.01318 39.4747 10.9763 41.4378 13.3979 41.4378C15.8196 41.4378 17.7826 39.4746 17.7826 37.053C17.7827 34.6315 15.8196 32.6683 13.3979 32.6683ZM13.3979 39.4891C12.0526 39.4891 10.962 38.3985 10.962 37.0531C10.962 35.7078 12.0526 34.6172 13.3979 34.6172C14.7433 34.6172 15.8338 35.7078 15.8338 37.0531C15.8339 38.3985 14.7433 39.4891 13.3979 39.4891Z" fill="#E22121"/>
<path d="M31.9111 32.6683C29.4894 32.6683 27.5264 34.6315 27.5264 37.053C27.5264 39.4747 29.4895 41.4378 31.9111 41.4378C34.3327 41.4378 36.2958 39.4746 36.2958 37.053C36.2958 34.6315 34.3328 32.6683 31.9111 32.6683ZM31.9111 39.4891C30.5657 39.4891 29.4752 38.3985 29.4752 37.0531C29.4752 35.7078 30.5657 34.6172 31.9111 34.6172C33.2564 34.6172 34.347 35.7078 34.347 37.0531C34.3471 38.3985 33.2564 39.4891 31.9111 39.4891Z" fill="#E22121"/>
<path d="M41.8014 7.0906C41.5985 6.86894 41.3209 6.73018 41.0219 6.70081L9.30547 6.26234L8.42852 3.58273C7.81073 1.79145 6.1333 0.582153 4.2386 0.562103H0.974394C0.436235 0.562103 0 0.998338 0 1.5365C0 2.07466 0.436235 2.51089 0.974394 2.51089H4.2386C5.29804 2.5343 6.23094 3.21457 6.57718 4.2161L12.7646 22.8757L12.2774 23.9962C11.734 25.3974 11.8972 26.9745 12.7159 28.2348C13.5267 29.4726 14.8908 30.2366 16.3699 30.2811H35.3219C35.86 30.2811 36.2962 29.8448 36.2962 29.3067C36.2962 28.7685 35.86 28.3323 35.3219 28.3323H16.3698C15.5345 28.3114 14.7657 27.872 14.3236 27.163C13.8864 26.4627 13.7966 25.5999 14.08 24.8244L14.4698 23.9475L34.9807 21.8038C37.2337 21.5556 39.087 19.917 39.6091 17.7113L41.9477 7.91868C42.0531 7.63669 41.9971 7.31954 41.8014 7.0906ZM37.709 17.2729C37.3927 18.6928 36.1872 19.7401 34.7372 19.8551L14.4698 21.95L9.93884 8.21112L39.8039 8.6496L37.709 17.2729Z" fill="#E22121"/>
</g>
<defs>
<clipPath id="clip0">
<rect width="42" height="42" fill="white"/>
</clipPath>
</defs>
</svg>
